<?xml version="1.0" encoding="UTF-8" standalone="no"?>
<!-- Created with Inkscape (http://www.inkscape.org/) -->

<svg
   xmlns:dc="http://purl.org/dc/elements/1.1/"
   xmlns:cc="http://creativecommons.org/ns#"
   xmlns:rdf="http://www.w3.org/1999/02/22-rdf-syntax-ns#"
   xmlns:svg="http://www.w3.org/2000/svg"
   xmlns="http://www.w3.org/2000/svg"
   xmlns:sodipodi="http://sodipodi.sourceforge.net/DTD/sodipodi-0.dtd"
   xmlns:inkscape="http://www.inkscape.org/namespaces/inkscape"
   id="svg4118"
   version="1.1"
   inkscape:version="0.48.2 r9819"
   width="180"
   height="120"
   xml:space="preserve"
   sodipodi:docname="spaceport-logo-inverse.ai"><metadata
     id="metadata4124"><rdf:RDF><cc:Work
         rdf:about=""><dc:format>image/svg+xml</dc:format><dc:type
           rdf:resource="http://purl.org/dc/dcmitype/StillImage" /><dc:title></dc:title></cc:Work></rdf:RDF></metadata><defs
     id="defs4122"><clipPath
       clipPathUnits="userSpaceOnUse"
       id="clipPath4134"><path
         d="M 0,306 450,306 450,0 0,0 0,306 z"
         id="path4136"
         inkscape:connector-curvature="0" /></clipPath><clipPath
       clipPathUnits="userSpaceOnUse"
       id="clipPath4150"><path
         d="M 0,306 450,306 450,0 0,0 0,306 z"
         id="path4152"
         inkscape:connector-curvature="0" /></clipPath></defs><sodipodi:namedview
     pagecolor="#ffffff"
     bordercolor="#666666"
     borderopacity="1"
     objecttolerance="10"
     gridtolerance="10"
     guidetolerance="10"
     inkscape:pageopacity="0"
     inkscape:pageshadow="2"
     inkscape:window-width="1351"
     inkscape:window-height="861"
     id="namedview4120"
     showgrid="false"
     inkscape:zoom="2.4679739"
     inkscape:cx="61.150737"
     inkscape:cy="65.245931"
     inkscape:window-x="0"
     inkscape:window-y="0"
     inkscape:window-maximized="0"
     inkscape:current-layer="g4126" /><g
     id="g4126"
     inkscape:groupmode="layer"
     inkscape:label="spaceport-logo-inverse"
     transform="matrix(1.25,0,0,-1.25,0,120)"><g
       id="g4146"
       transform="translate(-253.394,-125.60021)"><g
         id="g4148"
         clip-path="url(#clipPath4150)"><g
           id="g4154"
           transform="translate(297.8535,133.043)"><path
             d="m 0,0 c 22.008,-11.807 48.979,-5.121 63.135,14.662 -1.006,0.385 -1.94,0.908 -2.781,1.549 C 46.385,-3.701 20.584,-11.041 0,0 m 46.447,86.58 c 17.92,-9.612 26.418,-30.234 22.469,-50.356 0.979,-0.156 1.918,-0.432 2.795,-0.824 3.277,20.132 -6.283,40.998 -25.264,51.18"
             style="fill:#305766;fill-opacity:1;fill-rule:nonzero;stroke:none"
             id="path4156"
             inkscape:connector-curvature="0" /></g><g
           id="g4158"
           transform="translate(268.25,172.3286)"><path
             d="m 0,0 c 1.123,-0.488 2.174,-1.221 3.15,-2.197 l -2.929,-2.93 c -0.977,1.172 -2.344,1.758 -4.102,1.758 -1.758,0 -2.881,-0.415 -3.369,-1.245 -0.488,-0.83 -0.488,-1.538 0,-2.124 0.488,-0.586 1.611,-1.026 3.369,-1.319 1.856,-0.195 3.539,-0.805 5.053,-1.831 1.514,-1.025 2.271,-2.661 2.271,-4.907 0,-1.758 -0.808,-3.271 -2.424,-4.541 -1.617,-1.27 -3.499,-1.905 -5.648,-1.905 -2.041,0 -3.744,0.293 -5.111,0.879 -1.367,0.587 -2.539,1.368 -3.516,2.344 l 2.93,2.93 c 0.976,-1.172 2.637,-1.855 4.98,-2.051 1.953,0 3.171,0.415 3.655,1.245 0.483,0.831 0.483,1.661 0,2.491 -0.484,0.83 -1.702,1.342 -3.655,1.538 -1.758,0.195 -3.369,0.732 -4.834,1.611 -1.465,0.879 -2.197,2.393 -2.197,4.541 0,1.943 0.832,3.503 2.497,4.681 1.665,1.176 3.376,1.764 5.134,1.764 C -2.705,0.732 -1.123,0.488 0,0"
             style="fill:#305766;fill-opacity:1;fill-rule:nonzero;stroke:none"
             id="path4160"
             inkscape:connector-curvature="0" /></g><g
           id="g4162"
           transform="translate(279.3242,159.7456)"><path
             d="M 0,0 0,-2.373 C 0.195,-4.014 1.221,-4.976 3.076,-5.259 5.42,-5.073 6.738,-3.857 7.031,-1.611 6.934,1.123 5.615,2.539 3.076,2.637 1.221,2.344 0.195,1.465 0,0 m -4.102,-14.81 0,20.376 L 0,6.006 0,4.834 C 1.094,5.615 2.168,6.006 3.223,6.006 5.469,6.006 7.252,5.273 8.57,3.809 9.889,2.344 10.547,0.635 10.547,-1.318 10.547,-3.271 9.889,-4.98 8.57,-6.445 7.252,-7.912 5.469,-8.644 3.223,-8.644 1.758,-8.546 0.684,-8.15 0,-7.456 l 0,-7.37 -4.102,0.016 z"
             style="fill:#305766;fill-opacity:1;fill-rule:nonzero;stroke:none"
             id="path4164"
             inkscape:connector-curvature="0" /></g><g
           id="g4166"
           transform="translate(301.1367,155.4829)"><path
             d="M 0,0 0,1.655 C -0.391,2.407 -1.318,2.783 -2.783,2.783 -4.541,2.588 -5.469,1.904 -5.566,0.732 -5.469,-0.43 -4.541,-1.06 -2.783,-1.157 -1.318,-1.157 -0.391,-0.771 0,0 m -8.057,8.496 c 1.856,1.172 4.004,1.758 6.446,1.758 1.757,0 3.148,-0.488 4.174,-1.465 C 3.588,7.813 4.102,6.348 4.102,4.395 l 0,-8.79 -4.102,0 0,1.172 c -1.191,-0.781 -2.266,-1.172 -3.223,-1.172 -1.953,0 -3.418,0.414 -4.394,1.245 -0.977,0.83 -1.465,1.978 -1.465,3.443 0,1.367 0.461,2.588 1.384,3.662 0.923,1.074 2.415,1.611 4.475,1.611 0.948,0 2.022,-0.293 3.223,-0.878 l 0,0.439 c -0.02,1.074 -0.801,1.66 -2.344,1.758 -1.758,0 -3.125,-0.293 -4.101,-0.879 l -1.612,2.49 z"
             style="fill:#305766;fill-opacity:1;fill-rule:nonzero;stroke:none"
             id="path4168"
             inkscape:connector-curvature="0" /></g><g
           id="g4170"
           transform="translate(310.3496,152.9185)"><path
             d="m 0,0 c -1.465,1.222 -2.197,2.809 -2.197,4.762 l 0,1.465 c 0,1.953 0.732,3.54 2.197,4.76 1.465,1.221 3.18,1.831 5.143,1.831 2.343,0 4.291,-0.83 5.843,-2.49 L 8.057,8.131 C 7.178,9.01 6.201,9.449 5.127,9.449 4.15,9.449 3.297,9.059 2.564,8.277 1.832,7.496 1.465,6.568 1.465,5.494 1.465,4.42 1.807,3.492 2.49,2.711 3.174,1.93 4.053,1.539 5.127,1.539 c 1.074,0 2.051,0.44 2.93,1.318 L 10.986,0.66 C 9.424,-1 7.471,-1.831 5.127,-1.831 3.174,-1.831 1.465,-1.221 0,0"
             style="fill:#305766;fill-opacity:1;fill-rule:nonzero;stroke:none"
             id="path4172"
             inkscape:connector-curvature="0" /></g><g
           id="g4174"
           transform="translate(332.8652,161.7085)"><path
             d="M 0,0 C -0.586,0.439 -1.27,0.659 -2.051,0.659 -2.832,0.659 -3.516,0.439 -4.102,0 -4.688,-0.439 -4.98,-1.05 -4.98,-1.831 l 5.859,0 C 0.879,-1.05 0.586,-0.439 0,0 m -9.375,-3.296 c 0,2.149 0.684,3.906 2.051,5.274 1.367,1.367 3.125,2.05 5.273,2.05 2.149,0 3.858,-0.683 5.127,-2.05 C 4.346,0.61 4.98,-1.147 4.98,-3.296 l 0,-1.465 -10.107,0 c 0.098,-0.781 0.439,-1.391 1.025,-1.831 0.586,-0.439 1.27,-0.659 2.051,-0.659 1.367,0 2.588,0.391 3.662,1.172 l 2.344,-2.344 c -1.074,-1.465 -3.076,-2.198 -6.006,-2.198 -2.148,0 -3.906,0.684 -5.273,2.052 -1.367,1.367 -2.051,3.125 -2.051,5.273"
             style="fill:#305766;fill-opacity:1;fill-rule:nonzero;stroke:none"
             id="path4176"
             inkscape:connector-curvature="0" /></g><g
           id="g4178"
           transform="translate(345.1113,159.7456)"><path
             d="M 0,0 0,-2.373 C 0.195,-4.014 1.221,-4.976 3.076,-5.259 5.42,-5.073 6.738,-3.857 7.031,-1.611 6.934,1.123 5.615,2.539 3.076,2.637 1.221,2.344 0.195,1.465 0,0 m -4.102,-14.81 0,20.376 L 0,6.006 0,4.834 c 1.094,0.781 2.168,1.172 3.223,1.172 2.246,0 4.027,-0.733 5.345,-2.197 1.319,-1.465 1.979,-3.174 1.979,-5.127 0,-1.953 -0.66,-3.662 -1.979,-5.127 C 7.25,-7.912 5.469,-8.644 3.223,-8.644 1.758,-8.546 0.684,-8.15 0,-7.456 l 0,-7.37 -4.102,0.016 z"
             style="fill:#305766;fill-opacity:1;fill-rule:nonzero;stroke:none"
             id="path4180"
             inkscape:connector-curvature="0" /></g><g
           id="g4182"
           transform="translate(365.1934,154.4868)"><path
             d="M 0,0 C 1.113,0 2.018,0.374 2.711,1.12 3.404,1.868 3.75,2.798 3.75,3.911 3.75,5.024 3.404,5.957 2.711,6.709 2.018,7.461 1.109,7.837 -0.014,7.837 -1.117,7.837 -2.016,7.461 -2.709,6.709 -3.402,5.957 -3.75,5.024 -3.75,3.911 -3.75,2.798 -3.402,1.868 -2.709,1.12 -2.016,0.374 -1.113,0 0,0 m -5.316,-1.4 c -1.426,1.432 -2.139,3.207 -2.139,5.326 0,2.129 0.713,3.906 2.139,5.332 1.425,1.426 3.203,2.138 5.332,2.138 2.129,0 3.906,-0.712 5.332,-2.138 C 6.773,7.832 7.486,6.055 7.486,3.926 7.486,1.797 6.773,0.02 5.348,-1.406 3.922,-2.833 2.145,-3.545 0.016,-3.545 c -2.129,0 -3.907,0.714 -5.332,2.145"
             style="fill:#305766;fill-opacity:1;fill-rule:nonzero;stroke:none"
             id="path4184"
             inkscape:connector-curvature="0" /></g><g
           id="g4186"
           transform="translate(379.2422,164.1255)"><path
             d="m 0,0 c 1.045,1.074 2.318,1.611 3.822,1.611 0.479,0 0.934,-0.039 1.364,-0.117 L 4.541,-2.549 C 4.063,-2.119 3.379,-1.89 2.49,-1.86 1.494,-1.929 0.664,-2.651 0,-4.028 l 0,-9.01 -4.102,0 0,14.225 L 0,1.626 0,0 z"
             style="fill:#305766;fill-opacity:1;fill-rule:nonzero;stroke:none"
             id="path4188"
             inkscape:connector-curvature="0" /></g><g
           id="g4190"
           transform="translate(393.7441,151.0879)"><path
             d="M 0,0 C -1.66,0 -2.979,0.463 -3.955,1.391 -4.932,2.32 -5.42,3.516 -5.42,4.981 l 0,6.343 -2.197,0 0,3.31 2.197,0 0,3.97 4.115,0.439 0,-4.409 2.198,0 0,-3.31 -2.198,0 0,-5.757 c 0,-0.781 0.164,-1.331 0.492,-1.648 0.327,-0.318 0.749,-0.476 1.266,-0.476 0.156,0 0.524,0.063 1.1,0.19 L 2.416,0.688 C 1.713,0.229 0.908,0 0,0"
             style="fill:#305766;fill-opacity:1;fill-rule:nonzero;stroke:none"
             id="path4192"
             inkscape:connector-curvature="0" /></g></g></g></g></svg>